<?xml version="1.0" standalone="no"?><!DOCTYPE svg PUBLIC "-//W3C//DTD SVG 1.1//EN" "http://www.w3.org/Graphics/SVG/1.1/DTD/svg11.dtd"><svg t="1744355190328" class="icon" viewBox="0 0 1024 1024" version="1.1" xmlns="http://www.w3.org/2000/svg" p-id="5735" xmlns:xlink="http://www.w3.org/1999/xlink" width="200" height="200"><path d="M252.8 576.64c0 112.64 71.04 168.96 162.56 168.96 77.44 0 119.04-17.92 178.56-78.72 19.84 28.8 26.24 42.24 62.08 72.32 8.32 4.48 18.56 3.84 25.6-2.56 21.76-19.2 60.8-53.76 83.2-72.32 8.96-7.04 7.04-19.2 0.64-28.8-19.84-27.52-40.96-49.92-40.96-100.48V366.08c0-71.68 5.12-137.6-48-186.88-40.96-39.68-110.08-53.76-163.2-53.76-103.04 0-218.24 38.4-242.56 166.4-2.56 13.44 7.68 20.48 16.64 22.4l104.96 11.52c9.6-0.64 17.28-10.24 18.56-19.84 8.96-44.16 46.08-65.28 87.04-65.28 22.4 0 48 8.32 60.8 28.16 15.36 22.4 13.44 53.12 13.44 78.72v14.08c-62.72 7.04-144.64 11.52-203.52 37.76-68.48 29.44-115.84 88.96-115.84 177.28z m319.36-128v23.68c0 42.24 1.28 77.44-20.48 115.2-17.28 30.72-44.8 49.28-74.88 49.28-41.6 0-65.92-32-65.92-78.72 0-92.8 83.2-109.44 161.28-109.44zM800.64 787.2c-91.52 39.04-190.72 57.6-280.96 57.6-133.76 0-263.68-36.48-368-97.92-8.96-5.12-16 3.84-8.32 10.88a545.024 545.024 0 0 0 368 140.16c101.76 0 219.52-32 301.44-92.16 13.44-9.6 1.92-24.32-12.16-18.56z" fill="#050505" p-id="5736"></path><path d="M881.28 741.12c-8.96-10.88-85.12-20.48-131.84 12.16-7.04 5.12-5.76 12.16 1.92 10.88 26.24-3.2 84.48-10.24 95.36 3.2 10.24 13.44-11.52 68.48-21.12 92.8-3.2 7.68 3.2 10.24 10.24 4.48 42.88-35.84 54.4-112.64 45.44-123.52z" fill="#050505" p-id="5737"></path></svg>