<?xml version="1.0" standalone="no"?><!DOCTYPE svg PUBLIC "-//W3C//DTD SVG 1.1//EN" "http://www.w3.org/Graphics/SVG/1.1/DTD/svg11.dtd"><svg t="1744355257754" class="icon" viewBox="0 0 1024 1024" version="1.1" xmlns="http://www.w3.org/2000/svg" p-id="10861" xmlns:xlink="http://www.w3.org/1999/xlink" width="200" height="200"><path d="M913.408 318.867394a105.006545 105.006545 0 0 0-74.038303-74.162424C773.988848 227.110788 512 227.110788 512 227.110788s-262.019879 0-327.369697 17.501091a104.851394 104.851394 0 0 0-74.069333 74.162424C93.090909 384.217212 93.090909 520.750545 93.090909 520.750545s0 136.533333 17.470061 201.852122a105.006545 105.006545 0 0 0 74.069333 74.162424c65.349818 17.594182 327.369697 17.594182 327.369697 17.594182s262.019879 0 327.369697-17.594182a104.820364 104.820364 0 0 0 74.038303-74.162424c17.501091-65.349818 17.501091-201.852121 17.501091-201.852122s0-136.533333-17.501091-201.883151zM428.776727 646.050909v-250.600727l216.932849 124.338424-216.901818 126.262303z" p-id="10862"></path></svg>